<?xml version="1.0" encoding="UTF-8" standalone="no"?>
<!DOCTYPE svg PUBLIC "-//W3C//DTD SVG 1.1//EN" "http://www.w3.org/Graphics/SVG/1.1/DTD/svg11.dtd">
<svg version="1.1" xmlns="http://www.w3.org/2000/svg" xmlns:xlink="http://www.w3.org/1999/xlink" preserveAspectRatio="xMidYMid meet" viewBox="0 0 64 64" width="64" height="64"><defs><path d="M12.37 11.53L51.63 11.53L51.63 63L12.37 63L12.37 11.53Z" id="bPxwKyjIv"></path><path d="M27.62 0.8L36.38 0.8L36.38 37.05L27.62 37.05L27.62 0.8Z" id="bJoNk96ep"></path><path d="M48 40.05C48 48.88 40.83 56.05 32 56.05C23.17 56.05 16 48.88 16 40.05C16 31.22 23.17 24.05 32 24.05C40.83 24.05 48 31.22 48 40.05Z" id="ag3o0UVZx"></path></defs><g><g><g><use xlink:href="#bPxwKyjIv" opacity="1" fill="#f600ff" fill-opacity="1"></use><g><use xlink:href="#bPxwKyjIv" opacity="1" fill-opacity="0" stroke="#000000" stroke-width="1" stroke-opacity="1"></use></g></g><g><g><filter id="shadow13935389" x="18.62" y="-8.2" width="27.75" height="55.25" filterUnits="userSpaceOnUse" primitiveUnits="userSpaceOnUse"><feFlood></feFlood><feComposite in2="SourceAlpha" operator="in"></feComposite><feGaussianBlur stdDeviation="1"></feGaussianBlur><feOffset dx="1" dy="1" result="afterOffset"></feOffset><feFlood flood-color="#000000" flood-opacity="0.5"></feFlood><feComposite in2="afterOffset" operator="in"></feComposite><feMorphology operator="dilate" radius="1"></feMorphology><feComposite in2="SourceAlpha" operator="out"></feComposite></filter><path d="M27.62 0.8L36.38 0.8L36.38 37.05L27.62 37.05L27.62 0.8Z" id="c2pNv8NYLT" fill="white" fill-opacity="1" filter="url(#shadow13935389)"></path></g><use xlink:href="#bJoNk96ep" opacity="1" fill="#f600ff" fill-opacity="1"></use><g><use xlink:href="#bJoNk96ep" opacity="1" fill-opacity="0" stroke="#000000" stroke-width="1" stroke-opacity="1"></use></g></g><g><g><filter id="shadow11451450" x="7" y="15.05" width="51" height="51" filterUnits="userSpaceOnUse" primitiveUnits="userSpaceOnUse"><feFlood></feFlood><feComposite in2="SourceAlpha" operator="in"></feComposite><feGaussianBlur stdDeviation="1"></feGaussianBlur><feOffset dx="1" dy="1" result="afterOffset"></feOffset><feFlood flood-color="#000000" flood-opacity="0.5"></feFlood><feComposite in2="afterOffset" operator="in"></feComposite><feMorphology operator="dilate" radius="1"></feMorphology><feComposite in2="SourceAlpha" operator="out"></feComposite></filter><path d="M48 40.05C48 48.88 40.83 56.05 32 56.05C23.17 56.05 16 48.88 16 40.05C16 31.22 23.17 24.05 32 24.05C40.83 24.05 48 31.22 48 40.05Z" id="aLE27Jzfu" fill="white" fill-opacity="1" filter="url(#shadow11451450)"></path></g><use xlink:href="#ag3o0UVZx" opacity="1" fill="#f600ff" fill-opacity="1"></use><g><use xlink:href="#ag3o0UVZx" opacity="1" fill-opacity="0" stroke="#000000" stroke-width="1" stroke-opacity="1"></use></g><g></g></g></g></g></svg>